<?xml version="1.0" encoding="UTF-8" standalone="no"?>
<!-- Created with Inkscape (http://www.inkscape.org/) -->

<svg
   id="svg11103"
   width="370"
   height="60"
   version="1.1"
   viewBox="0 0 97.896 15.875"
   sodipodi:docname="senthilsweb-white-logo.svg"
   inkscape:version="1.2.2 (732a01da63, 2022-12-09)"
   xmlns:inkscape="http://www.inkscape.org/namespaces/inkscape"
   xmlns:sodipodi="http://sodipodi.sourceforge.net/DTD/sodipodi-0.dtd"
   xmlns="http://www.w3.org/2000/svg"
   xmlns:svg="http://www.w3.org/2000/svg">
  <defs
     id="defs443" />
  <sodipodi:namedview
     id="namedview441"
     pagecolor="#ffffff"
     bordercolor="#666666"
     borderopacity="1.0"
     inkscape:showpageshadow="2"
     inkscape:pageopacity="0.0"
     inkscape:pagecheckerboard="0"
     inkscape:deskcolor="#d1d1d1"
     showgrid="false"
     inkscape:zoom="3.1054054"
     inkscape:cx="236.68407"
     inkscape:cy="29.947781"
     inkscape:window-width="1920"
     inkscape:window-height="1009"
     inkscape:window-x="-8"
     inkscape:window-y="-8"
     inkscape:window-maximized="1"
     inkscape:current-layer="svg11103" />
  <g
     id="layer1"
     style="fill:#ffffff">
    <g
       id="text11432"
       style="stroke-width:0.26458;fill:#ffffff"
       aria-label="Senthilsweb">
      <path
         id="path11507"
         d="m10.796 10.112q0 .72089-.18604 1.2712-.17828.55035-.5116.95343-.32556.40308-.77515.67438-.44958.2713-.98444.43408-.5271.16278-1.124.23254-.58911.06976-1.2015.06976-.80615 0-1.4883-.12402-.68213-.11627-1.2867-.37207-.59686-.26355-1.155-.67438-.55035-.41083-1.1007-.99994l1.5813-1.6046q.21704.53485.59686.99219.37982.44958.82941.77515.45734.32556.94568.5116.48834.18604.92242.18604.5116 0 .96118-.06976.44958-.07751.7829-.24805.33331-.17053.51935-.44958.19379-.2868.19379-.71313 0-.32556-.14728-.55811-.14728-.23255-.38757-.39533-.23254-.17053-.53485-.2868-.30231-.11627-.62012-.19379-.31006-.085266-.61237-.14728-.30231-.069763-.53485-.13953-.45734-.13177-.95343-.27905-.49609-.15503-.97668-.34882-.48059-.19379-.91467-.44183-.42633-.2558-.75189-.59686-.32556-.34882-.51935-.7984-.19379-.45734-.19379-1.0464 0-.70538.17053-1.248.17828-.55035.49609-.95343.31781-.40308.75189-.67438.43408-.27905.95343-.44183.51935-.17053 1.1007-.2403.58911-.077515 1.2015-.077515.83716 0 1.5193.15503.68988.15503 1.2712.44183.58136.2868 1.062.68988.48834.39532.91467.88367l-1.5813 1.6046q-.18604-.55811-.51935-1.0077-.32556-.44958-.72864-.7674-.40308-.32556-.84491-.49609-.44183-.17828-.85266-.17828-.53485 0-.98444.077515-.44958.069763-.77515.2403-.31781.16278-.49609.44958-.17828.27905-.17828.69763 0 .33331.13177.56586.13177.23254.34882.39532.22479.16278.50385.2713.27905.10077.57361.17828.30231.077515.58911.13953.29456.05426.53485.12402.46509.13177.97668.27905.5116.14728 1.0077.34882.49609.19379.94568.44958.44958.2558.79065.61237.34106.34882.5426.8139.20154.45734.20154 1.0542z"
         style="fill:#ffffff" />
      <path
         id="path11509"
         d="m13.941 9.2746q.48059.10852.96118.17053.48059.062012.96893.062012.5116 0 .94568-.093018.44183-.10077.75964-.32556.32556-.23254.5116-.61237t.18604-.94568q0-.45734-.12402-.83716-.12402-.37982-.37207-.65112-.2403-.2713-.59686-.41858-.35657-.15503-.82941-.15503-.44183 0-.7984.16278-.34882.16278-.62012.44183-.26355.2713-.45734.63562-.18604.36432-.31006.75964-.12402.39532-.17828.7984-.05426.40308-.05426.75964 0 .062012 0 .12402 0 .062012.0078.12402zm6.457-1.7673q0 .55035-.17828.98444-.17828.42633-.48834.75189-.30231.32556-.70538.55035-.40308.22479-.86041.37207-.45734.13953-.94568.20154-.48059.06201-.93793.06201-.58136 0-1.1472-.07752-.56586-.08527-1.1162-.26355.08527.5116.2713.97668.18604.45734.49609.80615.31006.34106.75964.5426.45734.20154 1.0775.20154.41083 0 .7829-.12402.37207-.12402.68213-.34882.31006-.22479.5426-.53485.2403-.31006.38757-.68988l1.1317.41858q-.2558.61237-.70538 1.062-.44183.44183-1.0077.73639-.55811.2868-1.1937.42633-.62787.13953-1.248.13953-1.0232 0-1.8914-.34106-.86816-.34882-1.496-.96893-.62787-.62012-.98444-1.4805-.35657-.86041-.35657-1.8836 0-1.0232.35657-1.8836.35657-.86041.98444-1.4805.62787-.62012 1.496-.96118.86816-.34882 1.8914-.34882.49609 0 1.0154.069763.51935.069763 1.0077.22479.48834.14728.92242.38757t.75189.59686q.32556.34882.5116.8139.19379.46509.19379 1.062z"
         style="fill:#ffffff" />
      <path
         id="path11511"
         d="m30.527 8.391q0 .90692-.22479 1.8914-.21704.98444-.61237 1.9301-.39532.94568-.94568 1.7751-.55035.83716-1.2092 1.4418l-.98444-.53485q.20929-.38757.39532-.86816.18604-.48059.33331-1.0154.15503-.5426.2713-1.1162.12402-.57361.20154-1.1317.08527-.56586.12402-1.093.04651-.53485.04651-.99219 0-.30231-.02325-.64337-.02326-.34882-.10078-.68988-.069763-.34882-.19379-.66663-.12402-.31781-.33331-.55811-.20154-.2403-.49609-.38757-.2868-.14728-.68213-.14728-.38757 0-.68988.17828-.30231.17053-.53485.45734-.23254.27905-.40308.64337-.16278.36432-.2713.75189-.10077.37982-.14728.75189-.04651.37207-.04651.66663v4.4881h-2.6277v-8.9529h1.0077l1.2015 2.0851q.21704-.51935.5426-.94568.32556-.42633.73639-.72864.41083-.30231.90692-.46509.50384-.16278 1.0852-.16278.93018 0 1.6201.30231.68988.30231 1.1472.84491.45734.53485.68213 1.279.22479.73639.22479 1.6123z"
         style="fill:#ffffff" />
      <path
         id="path11513"
         d="m34.873 13.522h-2.6277v-7.9142h-1.6278v-1.0387h1.6278v-3.2944h2.6277v3.2944h2.713v1.0387h-2.713z"
         style="fill:#ffffff" />
      <path
         id="path11515"
         d="m47.296 8.391q0 .90692-.22479 1.8914-.21704.98444-.61237 1.9301-.39532.94568-.94568 1.7751-.55035.83716-1.2092 1.4418l-.98444-.53485q.20929-.38757.39532-.86816.18604-.48059.33331-1.0154.15503-.5426.2713-1.1162.12402-.57361.20154-1.1317.08527-.56586.12402-1.093.04651-.53485.04651-.99219 0-.30231-.02325-.64337-.02326-.34882-.10077-.68988-.069763-.34882-.19379-.66663-.12402-.31781-.33331-.55811-.20154-.2403-.49609-.38757-.2868-.14728-.68213-.14728-.38757 0-.68988.17828-.30231.17053-.53485.45734-.23254.27905-.40308.64337-.16278.36432-.2713.75189-.10077.37982-.14728.75189-.04651.37207-.04651.66663v4.4881h-2.6277v-12.247h2.62v4.6121q.50384-.73639 1.2325-1.1317.73639-.40308 1.6278-.40308.93018 0 1.6201.30231.68988.30231 1.1472.84491.45734.53485.68213 1.279.22479.73639.22479 1.6123z"
         style="fill:#ffffff" />
      <path
         id="path11517"
         d="m51.114 2.4068q0 .29456-.11627.55811-.10852.26355-.30231.45734t-.45734.31006q-.26355.10852-.55811.10852t-.5581-.10852q-.2558-.11627-.44958-.31006-.19379-.19379-.31006-.45734-.10852-.26355-.10852-.55811 0-.29456.10852-.55035.11627-.26355.31006-.45734.19379-.19379.44958-.30231.26355-.11627.5581-.11627t.55811.11627q.26355.10852.45734.30231t.30231.45734q.11627.2558.11627.55035zm-.11627 11.116h-2.6277v-8.9452h2.6277z"
         style="fill:#ffffff" />
      <path
         id="path11519"
         d="m55.15 13.522h-2.62v-13.077h1.0077l1.6123 2.7208z"
         style="fill:#ffffff" />
      <path
         id="path11521"
         d="m64.38 10.662q0 .58911-.17053 1.0464-.17053.45734-.46509.7984-.29456.33331-.69763.56586-.40308.22479-.86816.36432-.45734.13953-.96118.20154-.50384.06201-.99994.06201-.66663 0-1.1782-.08527-.5116-.08527-.97668-.2713-.46509-.19379-.93018-.49609-.45734-.30231-1.0232-.73639l1.527-1.248q.20929.39532.55035.72089.34882.31781.72089.55035.37207.23254.72089.35657.34882.12402.56586.12402.17828 0 .40308-.0078.22479-.0155.45734-.04651.23254-.03876.45734-.10852.22479-.06976.39532-.18604.17828-.12402.27905-.30231.10852-.18604.10852-.44183 0-.26355-.13953-.45734-.13178-.20148-.34882-.34876t-.49609-.24805-.56586-.17828q-.27905-.077515-.5426-.13178-.26355-.062012-.45734-.11627-.35657-.10077-.75189-.20154-.39532-.10852-.7829-.2403-.38757-.13953-.74414-.32556-.34882-.18604-.62012-.44183-.26355-.26355-.42633-.61237-.15503-.35657-.15503-.82941 0-.86816.34106-1.4495.34882-.58911.91467-.93793.56586-.35657 1.2867-.50385.72089-.14728 1.465-.14728.5116 0 1.0775.10852.56586.10077 1.1007.31006.53485.20154.99994.49609.46509.29456.77515.67438l-1.527 1.2557q-.17053-.46509-.44958-.7984-.2713-.33331-.59686-.5426-.31781-.21704-.65887-.31781-.33331-.10077-.62012-.10077-.27905 0-.62787.023254t-.65888.13177q-.30231.10852-.51935.33331-.20929.21704-.20929.60461 0 .27905.12402.48059.13178.19379.34106.34106.20929.13953.47284.2403.2713.093018.55035.17053.27905.069763.5426.12402.26355.05426.47284.11627.35657.10077.75189.20929.40308.10077.79065.2403.38757.13177.74414.31781.36432.17828.63562.44183t.43408.62012q.16278.34882.16278.82941z"
         style="fill:#ffffff" />
      <path
         id="path11523"
         d="m69.392 13.522h-2.3564l-2.4495-8.9529h2.62l1.5348 6.2787 1.279-6.2787h2.3564l1.5658 6.4492 1.5115-6.4492h1.8138l-2.713 8.9529h-2.3564l-1.3255-5.4415z"
         style="fill:#ffffff" />
      <path
         id="path11525"
         d="m79.963 9.2746q.48059.10852.96118.17053.48059.062012.96893.062012.5116 0 .94568-.093018.44183-.10077.75964-.32556.32556-.23254.5116-.61237.18604-.37982.18604-.94568 0-.45734-.12402-.83716-.12402-.37982-.37207-.65112-.2403-.2713-.59686-.41858-.35657-.15503-.82941-.15503-.44183 0-.7984.16278-.34882.16278-.62012.44183-.26355.2713-.45734.63562-.18604.36432-.31006.75964-.12402.39532-.17828.7984-.05426.40308-.05426.75964 0 .062012 0 .12402 0 .062012.0078.12402zm6.457-1.7673q0 .55035-.17828.98444-.17828.42633-.48834.75189-.30231.32556-.70538.55035-.40308.22479-.86041.37207-.45734.13953-.94568.20154-.48059.06201-.93793.06201-.58136 0-1.1472-.07752-.56586-.08527-1.1162-.26355.08527.5116.2713.97668.18604.45734.49609.80615.31006.34106.75964.5426.45734.20154 1.0775.20154.41083 0 .7829-.12402.37207-.12402.68213-.34882.31006-.22479.5426-.53485.2403-.31006.38757-.68988l1.1317.41858q-.2558.61237-.70538 1.062-.44183.44183-1.0077.73639-.5581.2868-1.1937.42633-.62787.13953-1.248.13953-1.0232 0-1.8914-.34106-.86816-.34882-1.496-.96893-.62787-.62012-.98444-1.4805-.35657-.86041-.35657-1.8836 0-1.0232.35657-1.8836.35657-.86041.98444-1.4805t1.496-.96118q.86816-.34882 1.8914-.34882.49609 0 1.0154.069763t1.0077.22479q.48834.14728.92242.38757t.75189.59686q.32556.34882.5116.8139.19379.46509.19379 1.062z"
         style="fill:#ffffff" />
      <path
         id="path11527"
         d="m96.913 9.0576q0 .97668-.29456 1.8293-.29456.85266-.85266 1.4883-.55811.62787-1.3643.99219t-1.8293.36432q-.51935 0-.99219-.15503-.46509-.15503-.86041-.43408-.38757-.2868-.68988-.68213-.29456-.39532-.46509-.88367l-1.1627 1.9456h-1.0077v-12.247h2.62v4.3641q.46509-.64337 1.1162-.94568.65887-.30231 1.4418-.30231 1.0232 0 1.8293.36432.80615.36432 1.3643.99219.5581.62787.85266 1.4805.29456.85266.29456 1.8293zm-2.6588 0q0-.34106-.03876-.72089-.031003-.38757-.11627-.7674t-.2403-.72864q-.14728-.34882-.37982-.61237-.23254-.2713-.55811-.42633-.32556-.16278-.7674-.16278-.40308 0-.72089.17053-.31006.16278-.55035.44183-.23254.27905-.39532.63562-.16278.35657-.26355.73639t-.14728.75189q-.04651.37207-.04651.68213 0 .34882.03101.73639.03876.38757.12402.77515.08527.37982.23254.72864.15503.34106.38757.61237.2403.26355.56586.41858.33331.15503.7829.15503.43408 0 .75964-.15503.33331-.16278.56586-.42633.23254-.2713.37982-.62012.15503-.35657.2403-.73639.08527-.37982.11627-.75964.03876-.38757.03876-.72864z"
         style="fill:#ffffff" />
    </g>
  </g>
</svg>
